<svg xmlns="http://www.w3.org/2000/svg" viewBox="0 32 120 158" fill="none">
  <path
    d="M27 136C27 149.067 29.6 158.733 34.8 165C40.1333 171.133 46.8 174.2 54.8 174.2C59.2 174.2 63.0667 173.333 66.4 171.6C69.8667 169.733 73.4667 166.733 77.2 162.6V107.2C72.6667 103.2 68.6 100.467 65 99C61.4 97.5333 57.9333 96.8 54.6 96.8C49.6667 96.8 45.0667 98.2 40.8 101C36.6667 103.667 33.3333 107.933 30.8 113.8C28.2667 119.533 27 126.933 27 136ZM79.2 185L77.8 171.2C74.3333 175.733 70.3333 179.267 65.8 181.8C61.4 184.333 56.0667 185.6 49.8 185.6C41.6667 185.6 34.5333 183.533 28.4 179.4C22.2667 175.267 17.4667 169.533 14 162.2C10.6667 154.733 9 146.133 9 136.4C9 126.133 10.8667 117.2 14.6 109.6C18.3333 102 23.4 96.0667 29.8 91.8C36.2 87.5333 43.4667 85.4 51.6 85.4C56.2667 85.4 60.7333 86.3333 65 88.2C69.4 90.0667 73.6667 93.4667 77.8 98.4V53.2L60.8 51.2V44.2L92 35.2L94.8 36.8L94 65.2V173.4L110.2 175.8V183L79.2 185Z"
    fill="#ffffff"
  />
</svg>
