<svg width="831" height="250" viewBox="0 0 831 250" fill="none" xmlns="http://www.w3.org/2000/svg">
<path d="M27 136C27 149.067 29.6 158.733 34.8 165C40.1333 171.133 46.8 174.2 54.8 174.2C59.2 174.2 63.0667 173.333 66.4 171.6C69.8667 169.733 73.4667 166.733 77.2 162.6V107.2C72.6667 103.2 68.6 100.467 65 99C61.4 97.5333 57.9333 96.8 54.6 96.8C49.6667 96.8 45.0667 98.2 40.8 101C36.6667 103.667 33.3333 107.933 30.8 113.8C28.2667 119.533 27 126.933 27 136ZM79.2 185L77.8 171.2C74.3333 175.733 70.3333 179.267 65.8 181.8C61.4 184.333 56.0667 185.6 49.8 185.6C41.6667 185.6 34.5333 183.533 28.4 179.4C22.2667 175.267 17.4667 169.533 14 162.2C10.6667 154.733 9 146.133 9 136.4C9 126.133 10.8667 117.2 14.6 109.6C18.3333 102 23.4 96.0667 29.8 91.8C36.2 87.5333 43.4667 85.4 51.6 85.4C56.2667 85.4 60.7333 86.3333 65 88.2C69.4 90.0667 73.6667 93.4667 77.8 98.4V53.2L60.8 51.2V44.2L92 35.2L94.8 36.8L94 65.2V173.4L110.2 175.8V183L79.2 185ZM114.477 183V175.8L129.477 173C129.61 167.933 129.677 162.467 129.677 156.6C129.81 150.6 129.877 145.4 129.877 141V131.6C129.877 126.133 129.81 121.6 129.677 118C129.677 114.267 129.543 110.4 129.277 106.4L113.277 104.6V97.6L144.077 85.4L147.077 87.4L146.477 114.6V141C146.477 145.4 146.477 150.6 146.477 156.6C146.61 162.467 146.743 167.933 146.877 173L160.877 175.8V183H114.477ZM138.077 63.4C134.343 63.4 131.143 62.2 128.477 59.8C125.943 57.4 124.677 54.3333 124.677 50.6C124.677 46.7333 125.943 43.6667 128.477 41.4C131.143 39 134.343 37.8 138.077 37.8C141.81 37.8 144.943 39 147.477 41.4C150.143 43.6667 151.477 46.7333 151.477 50.6C151.477 54.3333 150.143 57.4 147.477 59.8C144.943 62.2 141.81 63.4 138.077 63.4ZM208.447 143C214.847 143 219.847 140.6 223.447 135.8C227.047 131 228.847 124.933 228.847 117.6C228.847 110.533 227.114 104.8 223.647 100.4C220.314 95.8667 215.514 93.6 209.247 93.6C202.98 93.6 198.047 95.9333 194.447 100.6C190.847 105.133 189.047 111.067 189.047 118.4C189.047 125.733 190.714 131.667 194.047 136.2C197.514 140.733 202.314 143 208.447 143ZM208.847 151C203.647 151 198.714 150.267 194.047 148.8C190.714 153.067 189.047 157.333 189.047 161.6C189.047 164.267 189.78 166.4 191.247 168C192.847 169.6 195.98 170.4 200.647 170.4H226.847C237.914 170.4 246.047 172.667 251.247 177.2C256.447 181.733 259.047 188.067 259.047 196.2C259.047 201.933 257.18 207.467 253.447 212.8C249.847 218.133 244.38 222.467 237.047 225.8C229.714 229.133 220.58 230.8 209.647 230.8C195.114 230.8 184.58 228.533 178.047 224C171.514 219.467 168.247 213.667 168.247 206.6C168.247 202.333 169.647 198.333 172.447 194.6C175.38 191 180.514 187.4 187.847 183.8C179.047 181.4 174.647 176.333 174.647 168.6C174.647 165.4 175.647 162.067 177.647 158.6C179.78 155.133 183.314 151.067 188.247 146.4C183.447 143.733 179.647 140.067 176.847 135.4C174.18 130.733 172.847 125 172.847 118.2C172.847 107.667 176.247 99.6 183.047 94C189.98 88.2667 198.647 85.4 209.047 85.4C219.58 85.4 228.047 88 234.447 93.2L257.047 85.4L260.047 87.4V100H240.447C243.514 104.933 245.047 111 245.047 118.2C245.047 128.733 241.58 136.867 234.647 142.6C227.847 148.2 219.247 151 208.847 151ZM184.647 203.4C184.647 209.933 186.98 214.6 191.647 217.4C196.314 220.2 202.58 221.6 210.447 221.6C221.38 221.6 229.714 219.6 235.447 215.6C241.18 211.733 244.047 207 244.047 201.4C244.047 197 242.514 193.267 239.447 190.2C236.38 187.267 231.247 185.8 224.047 185.8H200.647C199.314 185.8 197.914 185.733 196.447 185.6C195.114 185.6 193.78 185.533 192.447 185.4C189.647 188.333 187.647 191.2 186.447 194C185.247 196.933 184.647 200.067 184.647 203.4ZM265.563 183V175.8L280.563 173C280.696 167.933 280.763 162.467 280.763 156.6C280.896 150.6 280.963 145.4 280.963 141V131.6C280.963 126.133 280.896 121.6 280.763 118C280.763 114.267 280.629 110.4 280.363 106.4L264.363 104.6V97.6L295.163 85.4L298.163 87.4L297.563 114.6V141C297.563 145.4 297.563 150.6 297.563 156.6C297.696 162.467 297.829 167.933 297.963 173L311.963 175.8V183H265.563ZM289.163 63.4C285.429 63.4 282.229 62.2 279.563 59.8C277.029 57.4 275.763 54.3333 275.763 50.6C275.763 46.7333 277.029 43.6667 279.563 41.4C282.229 39 285.429 37.8 289.163 37.8C292.896 37.8 296.029 39 298.563 41.4C301.229 43.6667 302.563 46.7333 302.563 50.6C302.563 54.3333 301.229 57.4 298.563 59.8C296.029 62.2 292.896 63.4 289.163 63.4ZM353.133 185.6C346.199 185.6 340.666 183.733 336.533 180C332.399 176.267 330.333 170.533 330.333 162.8C330.333 160.267 330.333 157.8 330.333 155.4C330.466 152.867 330.533 149.667 330.533 145.8V98.6H313.933V89.8L331.733 87.6L336.933 60.8H348.933L347.733 88H374.733V98.6H347.533V160.6C347.533 165.667 348.533 169.4 350.533 171.8C352.533 174.067 355.199 175.2 358.533 175.2C360.799 175.2 362.933 174.733 364.933 173.8C367.066 172.867 369.399 171.533 371.933 169.8L376.733 175C371.266 182.067 363.399 185.6 353.133 185.6ZM454.372 185C449.572 185 445.572 183.6 442.372 180.8C439.172 178 437.172 174.267 436.372 169.6C430.905 174.933 426.105 178.933 421.972 181.6C417.839 184.267 412.839 185.6 406.972 185.6C399.639 185.6 393.305 183.533 387.972 179.4C382.772 175.133 380.172 168.867 380.172 160.6C380.172 156.733 381.039 153.133 382.772 149.8C384.639 146.467 387.972 143.2 392.772 140C397.572 136.8 404.439 133.6 413.372 130.4C416.439 129.333 419.972 128.2 423.972 127C427.972 125.8 431.972 124.733 435.972 123.8V118.8C435.972 109.067 434.505 102.6 431.572 99.4C428.639 96.2 423.839 94.6 417.172 94.6C415.705 94.6 414.039 94.6667 412.172 94.8C410.439 94.9333 408.505 95.2667 406.372 95.8L402.572 108.8C400.705 115.2 397.239 118.4 392.172 118.4C386.572 118.4 383.439 115.667 382.772 110.2C384.639 102.6 389.039 96.6 395.972 92.2C403.039 87.6667 411.639 85.4 421.772 85.4C432.305 85.4 440.105 88.0667 445.172 93.4C450.239 98.6 452.772 107.533 452.772 120.2V162.8C452.772 167.067 453.439 170.133 454.772 172C456.105 173.733 457.839 174.6 459.972 174.6C461.705 174.6 463.172 174.2 464.372 173.4C465.572 172.6 466.705 171.533 467.772 170.2L471.772 174.6C469.372 178.467 466.705 181.2 463.772 182.8C460.972 184.267 457.839 185 454.372 185ZM397.972 157.6C397.972 162.933 399.505 166.733 402.572 169C405.639 171.267 409.439 172.4 413.972 172.4C415.972 172.4 417.839 172.133 419.572 171.6C421.439 171.067 423.639 170.067 426.172 168.6C428.705 167 431.972 164.733 435.972 161.8V131.2C432.505 132.133 429.105 133.2 425.772 134.4C422.439 135.467 419.705 136.4 417.572 137.2C411.839 139.467 407.572 141.8 404.772 144.2C401.972 146.6 400.105 148.933 399.172 151.2C398.372 153.467 397.972 155.6 397.972 157.6ZM471.93 183V175.8L487.93 173C488.063 167.533 488.13 162.2 488.13 157C488.263 151.667 488.33 146.333 488.33 141V53.2L471.93 51.2V44.2L503.13 35.2L505.93 36.8L505.13 65.2V141C505.13 146.333 505.13 151.667 505.13 157C505.263 162.333 505.396 167.667 505.53 173L521.53 175.8V183H471.93ZM547.5 136C547.5 149.067 550.1 158.733 555.3 165C560.633 171.133 567.3 174.2 575.3 174.2C579.7 174.2 583.567 173.333 586.9 171.6C590.367 169.733 593.967 166.733 597.7 162.6V107.2C593.167 103.2 589.1 100.467 585.5 99C581.9 97.5333 578.433 96.8 575.1 96.8C570.167 96.8 565.567 98.2 561.3 101C557.167 103.667 553.833 107.933 551.3 113.8C548.767 119.533 547.5 126.933 547.5 136ZM599.7 185L598.3 171.2C594.833 175.733 590.833 179.267 586.3 181.8C581.9 184.333 576.567 185.6 570.3 185.6C562.167 185.6 555.033 183.533 548.9 179.4C542.767 175.267 537.967 169.533 534.5 162.2C531.167 154.733 529.5 146.133 529.5 136.4C529.5 126.133 531.367 117.2 535.1 109.6C538.833 102 543.9 96.0667 550.3 91.8C556.7 87.5333 563.967 85.4 572.1 85.4C576.767 85.4 581.233 86.3333 585.5 88.2C589.9 90.0667 594.167 93.4667 598.3 98.4V53.2L581.3 51.2V44.2L612.5 35.2L615.3 36.8L614.5 65.2V173.4L630.7 175.8V183L599.7 185ZM682.777 185.6C675.043 185.6 667.643 183.8 660.577 180.2C653.643 176.467 647.977 170.933 643.577 163.6C639.177 156.133 636.977 146.933 636.977 136C636.977 124.933 639.177 115.667 643.577 108.2C647.977 100.6 653.643 94.9333 660.577 91.2C667.643 87.3333 675.043 85.4 682.777 85.4C690.51 85.4 697.843 87.3333 704.777 91.2C711.843 94.9333 717.577 100.6 721.977 108.2C726.51 115.667 728.777 124.933 728.777 136C728.777 146.933 726.51 156.133 721.977 163.6C717.577 170.933 711.843 176.467 704.777 180.2C697.843 183.8 690.51 185.6 682.777 185.6ZM682.777 176.6C691.443 176.6 698.11 173.2 702.777 166.4C707.443 159.467 709.777 149.333 709.777 136C709.777 122.533 707.443 112.267 702.777 105.2C698.11 98.1333 691.443 94.6 682.777 94.6C674.11 94.6 667.443 98.1333 662.777 105.2C658.243 112.267 655.977 122.533 655.977 136C655.977 149.333 658.243 159.467 662.777 166.4C667.443 173.2 674.11 176.6 682.777 176.6ZM785.142 185.6C771.409 185.6 760.476 181.133 752.342 172.2C744.209 163.267 740.142 151.133 740.142 135.8C740.142 125.267 742.276 116.267 746.542 108.8C750.942 101.2 756.676 95.4 763.742 91.4C770.809 87.4 778.342 85.4 786.342 85.4C792.342 85.4 797.876 86.5333 802.942 88.8C808.009 91.0667 812.209 94.2 815.542 98.2C818.876 102.067 820.942 106.467 821.742 111.4C820.809 116.467 817.742 119 812.542 119C809.209 119 806.676 118.133 804.942 116.4C803.342 114.533 802.209 112.2 801.542 109.4L797.942 96.2C796.076 95.5333 794.209 95.1333 792.342 95C790.609 94.7333 788.876 94.6 787.142 94.6C778.609 94.6 771.542 97.9333 765.942 104.6C760.476 111.267 757.742 121 757.742 133.8C757.742 146.333 760.742 155.933 766.742 162.6C772.742 169.267 780.409 172.6 789.742 172.6C795.476 172.6 800.742 171.333 805.542 168.8C810.342 166.133 814.276 162.333 817.342 157.4L822.342 160C819.542 168.267 815.009 174.6 808.742 179C802.476 183.4 794.609 185.6 785.142 185.6Z" fill="#002B7F"/>
<path d="M81 204L176.5 204M765.5 204L251 204" stroke="#002B7F" stroke-width="10" stroke-linecap="round" stroke-linejoin="bevel"/>
</svg>
